<svg width="32" height="33" viewBox="0 0 32 33" fill="none" xmlns="http://www.w3.org/2000/svg">
<path d="M25.3332 5.8335H6.6665C5.60564 5.8335 4.58822 6.25492 3.83808 7.00507C3.08793 7.75521 2.6665 8.77263 2.6665 9.8335V23.1668C2.6665 24.2277 3.08793 25.2451 3.83808 25.9953C4.58822 26.7454 5.60564 27.1668 6.6665 27.1668H25.3332C26.394 27.1668 27.4115 26.7454 28.1616 25.9953C28.9117 25.2451 29.3332 24.2277 29.3332 23.1668V9.8335C29.3332 8.77263 28.9117 7.75521 28.1616 7.00507C27.4115 6.25492 26.394 5.8335 25.3332 5.8335ZM24.4398 8.50016L15.9998 14.8335L7.55984 8.50016H24.4398ZM25.3332 24.5002H6.6665C6.31288 24.5002 5.97374 24.3597 5.7237 24.1096C5.47365 23.8596 5.33317 23.5205 5.33317 23.1668V10.1668L15.1998 17.5668C15.4306 17.7399 15.7113 17.8335 15.9998 17.8335C16.2883 17.8335 16.569 17.7399 16.7998 17.5668L26.6665 10.1668V23.1668C26.6665 23.5205 26.526 23.8596 26.276 24.1096C26.0259 24.3597 25.6868 24.5002 25.3332 24.5002Z" fill="url(#paint0_linear_392_108)"/>
<defs>
<linearGradient id="paint0_linear_392_108" x1="9.79439" y1="-8.17958" x2="35.9219" y2="8.19902" gradientUnits="userSpaceOnUse">
<stop stop-color="#00E0FF"/>
<stop offset="1" stop-color="#00FF94"/>
</linearGradient>
</defs>
</svg>
